<svg xmlns="http://www.w3.org/2000/svg" viewBox="0 0 32 32">
  <rect width="32" height="32" rx="7" fill="#FFFFFF"/>
  <g transform="translate(16,16) scale(0.52)">
    <polygon points="0,-28 -5,-16 5,-16" fill="#BFBFBF" opacity="0.6" transform="rotate(0)"/>
    <polygon points="0,-28 -5,-16 5,-16" fill="#A8C8CE" opacity="0.7" transform="rotate(20)"/>
    <polygon points="0,-28 -5,-16 5,-16" fill="#8EC4C8" opacity="0.8" transform="rotate(40)"/>
    <polygon points="0,-28 -5,-16 5,-16" fill="#55A5BD" opacity="0.9" transform="rotate(60)"/>
    <polygon points="0,-28 -5,-16 5,-16" fill="#3DBDAD" transform="rotate(80)"/>
    <polygon points="0,-28 -5,-16 5,-16" fill="#3DBDAD" transform="rotate(100)"/>
    <polygon points="0,-28 -5,-16 5,-16" fill="#007299" transform="rotate(120)"/>
    <polygon points="0,-28 -5,-16 5,-16" fill="#007299" transform="rotate(140)"/>
    <polygon points="0,-28 -5,-16 5,-16" fill="#09464D" transform="rotate(160)"/>
    <polygon points="0,-28 -5,-16 5,-16" fill="#09464D" transform="rotate(180)"/>
    <polygon points="0,-28 -5,-16 5,-16" fill="#09464D" transform="rotate(200)"/>
    <polygon points="0,-28 -5,-16 5,-16" fill="#007299" transform="rotate(220)"/>
    <polygon points="0,-28 -5,-16 5,-16" fill="#007299" transform="rotate(240)"/>
    <polygon points="0,-28 -5,-16 5,-16" fill="#3DBDAD" transform="rotate(260)"/>
    <polygon points="0,-28 -5,-16 5,-16" fill="#3DBDAD" transform="rotate(280)"/>
    <polygon points="0,-28 -5,-16 5,-16" fill="#55A5BD" opacity="0.9" transform="rotate(300)"/>
    <polygon points="0,-28 -5,-16 5,-16" fill="#8EC4C8" opacity="0.8" transform="rotate(320)"/>
    <polygon points="0,-28 -5,-16 5,-16" fill="#A8C8CE" opacity="0.7" transform="rotate(340)"/>
  </g>
</svg>
